<svg id="Layer_1" data-name="Layer 1" xmlns="http://www.w3.org/2000/svg" viewBox="0 0 1000 1000"><defs><style>.cls-1,.cls-11,.cls-3,.cls-5,.cls-7,.cls-9{fill:none;stroke-miterlimit:10;stroke-width:20px;}.cls-1{stroke:#fcee21;}.cls-2{fill:#fcee21;}.cls-3{stroke:#7ac943;}.cls-4{fill:#7ac943;}.cls-5{stroke:#ff1d25;}.cls-6{fill:#ff1d25;}.cls-7{stroke:#3fa9f5;}.cls-8{fill:#3fa9f5;}.cls-9{stroke:#ff931e;}.cls-10{fill:#ff931e;}.cls-11{stroke:#ff7bac;}.cls-12{fill:#ff7bac;}</style></defs><title>small_logo_color</title><polyline class="cls-1" points="93.5 468.5 156.5 531.5 281.5 531.5 406.5 656.5"/><circle class="cls-2" cx="93.5" cy="468.5" r="18.8" transform="translate(-303.89 203.33) rotate(-45)"/><circle class="cls-2" cx="406.5" cy="656.5" r="18.8" transform="translate(-345.15 479.72) rotate(-45)"/><polyline class="cls-3" points="781.5 656.5 718.5 718.5 656.5 718.5"/><circle class="cls-4" cx="781.5" cy="656.5" r="18.8" transform="translate(-235.99 736.75) rotate(-44.54)"/><circle class="cls-4" cx="656.5" cy="718.5" r="18.8"/><polyline class="cls-5" points="594.5 906.5 594.5 781.5 469.5 656.5 469.5 593.5"/><circle class="cls-6" cx="594.5" cy="906.5" r="18.8"/><circle class="cls-6" cx="469.5" cy="593.5" r="18.8"/><polyline class="cls-7" points="593.5 531.5 656.5 593.5 781.5 593.5 906.5 468.5"/><circle class="cls-8" cx="593.5" cy="531.5" r="18.8" transform="translate(-201.62 581.7) rotate(-45.46)"/><circle class="cls-8" cx="906.5" cy="468.5" r="18.8" transform="translate(-65.77 778.21) rotate(-45)"/><polyline class="cls-7" points="93.5 343.5 281.5 155.5 468.5 155.5"/><circle class="cls-8" cx="93.5" cy="343.5" r="18.8" transform="translate(-215.51 166.72) rotate(-45)"/><circle class="cls-8" cx="468.5" cy="155.5" r="18.8"/><polyline class="cls-3" points="468.5 93.5 656.5 93.5 781.5 218.5"/><circle class="cls-4" cx="468.5" cy="93.5" r="18.8"/><circle class="cls-4" cx="781.5" cy="218.5" r="18.8" transform="translate(74.39 616.6) rotate(-45)"/><polyline class="cls-9" points="906.5 405.5 781.5 280.5 656.5 280.5 531.5 155.5"/><circle class="cls-10" cx="906.5" cy="405.5" r="18.8" transform="translate(-21.22 759.76) rotate(-45)"/><circle class="cls-10" cx="531.5" cy="155.5" r="18.8" transform="translate(45.72 421.37) rotate(-45)"/><polyline class="cls-1" points="781.5 405.5 656.5 405.5 531.5 280.5 406.5 280.5"/><circle class="cls-2" cx="781.5" cy="405.5" r="18.8"/><circle class="cls-2" cx="406.5" cy="280.5" r="18.8"/><polyline class="cls-3" points="343.5 218.5 218.5 343.5 218.5 468.5"/><circle class="cls-4" cx="343.5" cy="218.5" r="18.8" transform="translate(-53.89 306.89) rotate(-45)"/><circle class="cls-4" cx="218.5" cy="468.5" r="18.8"/><polyline class="cls-5" points="281.5 468.5 406.5 343.5 468.5 343.5 593.5 468.5"/><circle class="cls-6" cx="281.5" cy="468.5" r="18.8" transform="translate(-248.83 336.27) rotate(-45)"/><circle class="cls-6" cx="593.5" cy="468.5" r="18.8" transform="translate(-157.45 556.89) rotate(-45)"/><polyline class="cls-11" points="656.5 530.5 718.5 530.5 781.5 468.5"/><circle class="cls-12" cx="656.5" cy="530.5" r="18.8"/><circle class="cls-12" cx="781.5" cy="468.5" r="18.8" transform="translate(-104.13 682.75) rotate(-44.54)"/><polyline class="cls-9" points="594.5 655.5 531.5 593.5 531.5 530.5 469.5 468.5 406.5 468.5 344.5 530.5"/><circle class="cls-10" cx="594.5" cy="655.5" r="18.8" transform="translate(-289.7 619.44) rotate(-45.46)"/><circle class="cls-10" cx="344.5" cy="530.5" r="18.8" transform="translate(-274.22 398.98) rotate(-45)"/></svg>