<svg width="150" height="39" viewBox="0 0 150 39" fill="none" xmlns="http://www.w3.org/2000/svg">
<path d="M145.867 11.5547C145.143 11.5547 144.503 11.3984 143.945 11.0859C143.388 10.7682 142.951 10.2865 142.633 9.64062C142.315 8.99479 142.156 8.19271 142.156 7.23438C142.156 6.375 142.315 5.6224 142.633 4.97656C142.956 4.32552 143.398 3.82552 143.961 3.47656C144.523 3.1224 145.159 2.94531 145.867 2.94531C146.565 2.94531 147.177 3.10677 147.703 3.42969C148.229 3.7526 148.635 4.22656 148.922 4.85156C149.214 5.47135 149.359 6.22135 149.359 7.10156C149.359 7.26302 149.359 7.42448 149.359 7.58594H142.891V6.42969H148.539L147.836 6.8125C147.836 6.21875 147.758 5.72396 147.602 5.32812C147.451 4.93229 147.227 4.63802 146.93 4.44531C146.638 4.2526 146.279 4.15625 145.852 4.15625C145.419 4.15625 145.036 4.27083 144.703 4.5C144.37 4.72917 144.107 5.06771 143.914 5.51562C143.727 5.96354 143.633 6.5026 143.633 7.13281V7.21875C143.633 7.91146 143.727 8.48958 143.914 8.95312C144.102 9.41667 144.37 9.76302 144.719 9.99219C145.068 10.2214 145.484 10.3359 145.969 10.3359C146.474 10.3359 146.893 10.1875 147.227 9.89062C147.565 9.58854 147.773 9.16146 147.852 8.60938H149.312C149.25 9.19271 149.073 9.70573 148.781 10.1484C148.49 10.5911 148.094 10.9375 147.594 11.1875C147.099 11.4323 146.523 11.5547 145.867 11.5547Z" fill="black"/>
<path d="M136.898 3.17188H138.32V5.13281L138.211 5.08594C138.294 4.66927 138.448 4.30469 138.672 3.99219C138.901 3.67969 139.195 3.4375 139.555 3.26562C139.914 3.09375 140.328 3.00781 140.797 3.00781C140.917 3.00781 141.039 3.01823 141.164 3.03906V4.47656C141.065 4.45573 140.969 4.4401 140.875 4.42969C140.781 4.41927 140.682 4.41406 140.578 4.41406C140.099 4.41406 139.693 4.51042 139.359 4.70312C139.026 4.89583 138.771 5.1849 138.594 5.57031C138.422 5.95052 138.336 6.42448 138.336 6.99219V11.3281H136.898V3.17188Z" fill="black"/>
<path d="M131.508 11.5547C130.784 11.5547 130.143 11.3984 129.586 11.0859C129.029 10.7682 128.591 10.2865 128.273 9.64062C127.956 8.99479 127.797 8.19271 127.797 7.23438C127.797 6.375 127.956 5.6224 128.273 4.97656C128.596 4.32552 129.039 3.82552 129.602 3.47656C130.164 3.1224 130.799 2.94531 131.508 2.94531C132.206 2.94531 132.818 3.10677 133.344 3.42969C133.87 3.7526 134.276 4.22656 134.562 4.85156C134.854 5.47135 135 6.22135 135 7.10156C135 7.26302 135 7.42448 135 7.58594H128.531V6.42969H134.18L133.477 6.8125C133.477 6.21875 133.398 5.72396 133.242 5.32812C133.091 4.93229 132.867 4.63802 132.57 4.44531C132.279 4.2526 131.919 4.15625 131.492 4.15625C131.06 4.15625 130.677 4.27083 130.344 4.5C130.01 4.72917 129.747 5.06771 129.555 5.51562C129.367 5.96354 129.273 6.5026 129.273 7.13281V7.21875C129.273 7.91146 129.367 8.48958 129.555 8.95312C129.742 9.41667 130.01 9.76302 130.359 9.99219C130.708 10.2214 131.125 10.3359 131.609 10.3359C132.115 10.3359 132.534 10.1875 132.867 9.89062C133.206 9.58854 133.414 9.16146 133.492 8.60938H134.953C134.891 9.19271 134.714 9.70573 134.422 10.1484C134.13 10.5911 133.734 10.9375 133.234 11.1875C132.74 11.4323 132.164 11.5547 131.508 11.5547Z" fill="black"/>
<path d="M119.477 0.125H120.914V5.66406L120.703 5.05469C120.802 4.6224 120.971 4.2474 121.211 3.92969C121.456 3.61198 121.766 3.36979 122.141 3.20312C122.516 3.03125 122.943 2.94531 123.422 2.94531C123.958 2.94531 124.419 3.05729 124.805 3.28125C125.195 3.50521 125.492 3.82292 125.695 4.23438C125.898 4.64062 126 5.11719 126 5.66406V11.3281H124.562V5.82031C124.562 5.28385 124.43 4.8724 124.164 4.58594C123.904 4.29948 123.518 4.15625 123.008 4.15625C122.596 4.15625 122.232 4.25781 121.914 4.46094C121.602 4.66406 121.357 4.96875 121.18 5.375C121.003 5.77604 120.914 6.26302 120.914 6.83594V11.3281H119.477V0.125Z" fill="black"/>
<path d="M110.523 11.5547C109.799 11.5547 109.159 11.3984 108.602 11.0859C108.044 10.7682 107.607 10.2865 107.289 9.64062C106.971 8.99479 106.812 8.19271 106.812 7.23438C106.812 6.375 106.971 5.6224 107.289 4.97656C107.612 4.32552 108.055 3.82552 108.617 3.47656C109.18 3.1224 109.815 2.94531 110.523 2.94531C111.221 2.94531 111.833 3.10677 112.359 3.42969C112.885 3.7526 113.292 4.22656 113.578 4.85156C113.87 5.47135 114.016 6.22135 114.016 7.10156C114.016 7.26302 114.016 7.42448 114.016 7.58594H107.547V6.42969H113.195L112.492 6.8125C112.492 6.21875 112.414 5.72396 112.258 5.32812C112.107 4.93229 111.883 4.63802 111.586 4.44531C111.294 4.2526 110.935 4.15625 110.508 4.15625C110.076 4.15625 109.693 4.27083 109.359 4.5C109.026 4.72917 108.763 5.06771 108.57 5.51562C108.383 5.96354 108.289 6.5026 108.289 7.13281V7.21875C108.289 7.91146 108.383 8.48958 108.57 8.95312C108.758 9.41667 109.026 9.76302 109.375 9.99219C109.724 10.2214 110.141 10.3359 110.625 10.3359C111.13 10.3359 111.549 10.1875 111.883 9.89062C112.221 9.58854 112.43 9.16146 112.508 8.60938H113.969C113.906 9.19271 113.729 9.70573 113.438 10.1484C113.146 10.5911 112.75 10.9375 112.25 11.1875C111.755 11.4323 111.18 11.5547 110.523 11.5547Z" fill="black"/>
<path d="M98.5234 3.17188H100.055L102.359 9.90625H102.086L104.344 3.17188H105.805L102.844 11.3281H101.516L98.5234 3.17188Z" fill="black"/>
<path d="M95.6328 3.17188H97.0703V11.3281H95.6328V3.17188ZM96.3516 1.92188C96.1797 1.92188 96.0182 1.88021 95.8672 1.79688C95.7214 1.70833 95.6042 1.59115 95.5156 1.44531C95.4323 1.29427 95.3906 1.13281 95.3906 0.960938C95.3906 0.789062 95.4323 0.630208 95.5156 0.484375C95.6042 0.333333 95.7214 0.216146 95.8672 0.132812C96.0182 0.0442708 96.1797 0 96.3516 0C96.5234 0 96.6823 0.0442708 96.8281 0.132812C96.9792 0.216146 97.0964 0.333333 97.1797 0.484375C97.2682 0.630208 97.3125 0.789062 97.3125 0.960938C97.3125 1.13281 97.2682 1.29427 97.1797 1.44531C97.0964 1.59115 96.9792 1.70833 96.8281 1.79688C96.6823 1.88021 96.5234 1.92188 96.3516 1.92188Z" fill="black"/>
<path d="M91.8672 0.125H93.3047V11.3281H91.8672V0.125Z" fill="black"/>
<path d="M84.5391 0.125H85.9766V11.3281H84.5391V0.125Z" fill="black"/>
<path d="M80.7734 0.125H82.2109V11.3281H80.7734V0.125Z" fill="black"/>
<path d="M77.0078 3.17188H78.4453V11.3281H77.0078V3.17188ZM77.7266 1.92188C77.5547 1.92188 77.3932 1.88021 77.2422 1.79688C77.0964 1.70833 76.9792 1.59115 76.8906 1.44531C76.8073 1.29427 76.7656 1.13281 76.7656 0.960938C76.7656 0.789062 76.8073 0.630208 76.8906 0.484375C76.9792 0.333333 77.0964 0.216146 77.2422 0.132812C77.3932 0.0442708 77.5547 0 77.7266 0C77.8984 0 78.0573 0.0442708 78.2031 0.132812C78.3542 0.216146 78.4714 0.333333 78.5547 0.484375C78.6432 0.630208 78.6875 0.789062 78.6875 0.960938C78.6875 1.13281 78.6432 1.29427 78.5547 1.44531C78.4714 1.59115 78.3542 1.70833 78.2031 1.79688C78.0573 1.88021 77.8984 1.92188 77.7266 1.92188Z" fill="black"/>
<path d="M64.0703 3.17188H65.5391L67.5078 10.3203H66.8984L69.0312 3.17188H70.6406L72.7266 10.3203H72.1875L74.1016 3.17188H75.4766L73.0859 11.3281H71.7344L69.5078 3.61719H70.1641L67.8281 11.3281H66.4688L64.0703 3.17188Z" fill="black"/>
<path d="M56.2891 11.5547C55.8516 11.5547 55.4505 11.4714 55.0859 11.3047C54.7266 11.138 54.4167 10.8854 54.1562 10.5469C53.901 10.2083 53.7109 9.78646 53.5859 9.28125L53.8984 9.60156V11.3281H52.5078V3.17188H53.9453V4.99219L53.6016 5.21875C53.7109 4.74479 53.8958 4.33854 54.1562 4C54.4167 3.65625 54.7344 3.39583 55.1094 3.21875C55.4896 3.03646 55.9036 2.94531 56.3516 2.94531C57.0443 2.94531 57.638 3.1224 58.1328 3.47656C58.6328 3.82552 59.013 4.32552 59.2734 4.97656C59.5339 5.6224 59.6641 6.38021 59.6641 7.25C59.6641 8.11458 59.5286 8.8724 59.2578 9.52344C58.987 10.1693 58.5964 10.6693 58.0859 11.0234C57.5755 11.3776 56.9766 11.5547 56.2891 11.5547ZM56.0781 10.3359C56.526 10.3359 56.9062 10.2083 57.2188 9.95312C57.5312 9.69271 57.7656 9.33333 57.9219 8.875C58.0781 8.41146 58.1562 7.875 58.1562 7.26562C58.1562 6.65625 58.0781 6.11979 57.9219 5.65625C57.7656 5.1875 57.5312 4.82292 57.2188 4.5625C56.9062 4.29688 56.526 4.16406 56.0781 4.16406C55.6302 4.16406 55.2448 4.29688 54.9219 4.5625C54.6042 4.82292 54.362 5.1875 54.1953 5.65625C54.0339 6.11979 53.9531 6.65625 53.9531 7.26562C53.9531 7.86979 54.0339 8.40365 54.1953 8.86719C54.362 9.33073 54.6042 9.69271 54.9219 9.95312C55.2448 10.2083 55.6302 10.3359 56.0781 10.3359ZM52.5078 9.66406H53.9453V14.2109H52.5078V9.66406Z" fill="black"/>
<path d="M47.2578 11.5547C46.8203 11.5547 46.4193 11.4714 46.0547 11.3047C45.6953 11.138 45.3854 10.8854 45.125 10.5469C44.8698 10.2083 44.6797 9.78646 44.5547 9.28125L44.8672 9.60156V11.3281H43.4766V3.17188H44.9141V4.99219L44.5703 5.21875C44.6797 4.74479 44.8646 4.33854 45.125 4C45.3854 3.65625 45.7031 3.39583 46.0781 3.21875C46.4583 3.03646 46.8724 2.94531 47.3203 2.94531C48.013 2.94531 48.6068 3.1224 49.1016 3.47656C49.6016 3.82552 49.9818 4.32552 50.2422 4.97656C50.5026 5.6224 50.6328 6.38021 50.6328 7.25C50.6328 8.11458 50.4974 8.8724 50.2266 9.52344C49.9557 10.1693 49.5651 10.6693 49.0547 11.0234C48.5443 11.3776 47.9453 11.5547 47.2578 11.5547ZM47.0469 10.3359C47.4948 10.3359 47.875 10.2083 48.1875 9.95312C48.5 9.69271 48.7344 9.33333 48.8906 8.875C49.0469 8.41146 49.125 7.875 49.125 7.26562C49.125 6.65625 49.0469 6.11979 48.8906 5.65625C48.7344 5.1875 48.5 4.82292 48.1875 4.5625C47.875 4.29688 47.4948 4.16406 47.0469 4.16406C46.599 4.16406 46.2135 4.29688 45.8906 4.5625C45.5729 4.82292 45.3307 5.1875 45.1641 5.65625C45.0026 6.11979 44.9219 6.65625 44.9219 7.26562C44.9219 7.86979 45.0026 8.40365 45.1641 8.86719C45.3307 9.33073 45.5729 9.69271 45.8906 9.95312C46.2135 10.2083 46.599 10.3359 47.0469 10.3359ZM43.4766 9.66406H44.9141V14.2109H43.4766V9.66406Z" fill="black"/>
<path d="M37.2344 11.5547C36.7292 11.5547 36.2734 11.4583 35.8672 11.2656C35.4609 11.0677 35.1406 10.7865 34.9062 10.4219C34.6771 10.0573 34.5625 9.63281 34.5625 9.14844C34.5625 8.40365 34.7865 7.82552 35.2344 7.41406C35.6875 6.9974 36.3203 6.72396 37.1328 6.59375L38.4297 6.38281C38.763 6.32552 39.0234 6.26302 39.2109 6.19531C39.3984 6.1224 39.5365 6.02865 39.625 5.91406C39.7135 5.79427 39.7578 5.63542 39.7578 5.4375C39.7578 5.21875 39.6979 5.01042 39.5781 4.8125C39.4583 4.61458 39.2734 4.45312 39.0234 4.32812C38.7734 4.20312 38.4635 4.14062 38.0938 4.14062C37.5729 4.14062 37.1484 4.27865 36.8203 4.55469C36.4974 4.82552 36.3203 5.20052 36.2891 5.67969H34.7812C34.7969 5.15885 34.9453 4.69271 35.2266 4.28125C35.5078 3.86458 35.8958 3.53906 36.3906 3.30469C36.8854 3.0651 37.4531 2.94531 38.0938 2.94531C38.7448 2.94531 39.3047 3.0625 39.7734 3.29688C40.2422 3.52604 40.599 3.86198 40.8438 4.30469C41.0938 4.7474 41.2188 5.27604 41.2188 5.89062V9.4375C41.2188 9.81771 41.2448 10.1693 41.2969 10.4922C41.3542 10.8099 41.4349 11.013 41.5391 11.1016V11.3281H40.0156C39.9531 11.1042 39.901 10.8438 39.8594 10.5469C39.8229 10.2448 39.8047 9.95052 39.8047 9.66406L40.0625 9.74219C39.9375 10.0807 39.7396 10.388 39.4688 10.6641C39.1979 10.9401 38.8698 11.1589 38.4844 11.3203C38.099 11.4766 37.6823 11.5547 37.2344 11.5547ZM37.5547 10.3516C38.0078 10.3516 38.4036 10.25 38.7422 10.0469C39.0807 9.83854 39.3385 9.5599 39.5156 9.21094C39.6979 8.85677 39.7891 8.46354 39.7891 8.03125V6.8125L39.9531 6.83594C39.8021 7.00781 39.6094 7.14323 39.375 7.24219C39.1458 7.34115 38.8359 7.42969 38.4453 7.50781L37.5859 7.67969C37.0599 7.78906 36.6745 7.95573 36.4297 8.17969C36.1849 8.39844 36.0625 8.70573 36.0625 9.10156C36.0625 9.48177 36.2031 9.78646 36.4844 10.0156C36.7708 10.2396 37.1276 10.3516 37.5547 10.3516Z" fill="black"/>
<path d="M26.1641 3.17188H27.5859V5.13281L27.4766 5.08594C27.5599 4.66927 27.7135 4.30469 27.9375 3.99219C28.1667 3.67969 28.4609 3.4375 28.8203 3.26562C29.1797 3.09375 29.5938 3.00781 30.0625 3.00781C30.1823 3.00781 30.3047 3.01823 30.4297 3.03906V4.47656C30.3307 4.45573 30.2344 4.4401 30.1406 4.42969C30.0469 4.41927 29.9479 4.41406 29.8438 4.41406C29.3646 4.41406 28.9583 4.51042 28.625 4.70312C28.2917 4.89583 28.0365 5.1849 27.8594 5.57031C27.6875 5.95052 27.6016 6.42448 27.6016 6.99219V11.3281H26.1641V3.17188Z" fill="black"/>
<path d="M19.9688 11.5547C19.4167 11.5547 18.9401 11.4479 18.5391 11.2344C18.1432 11.0208 17.8385 10.7109 17.625 10.3047C17.4167 9.89844 17.3125 9.40885 17.3125 8.83594V3.17188H18.75V8.67188C18.75 9.19792 18.888 9.60677 19.1641 9.89844C19.4401 10.1901 19.8411 10.3359 20.3672 10.3359C20.7682 10.3359 21.1198 10.237 21.4219 10.0391C21.7292 9.84115 21.9688 9.54948 22.1406 9.16406C22.3125 8.77344 22.3984 8.29948 22.3984 7.74219V3.17188H23.8359V11.3281H22.4297V8.83594L22.6719 9.4375C22.5521 9.86979 22.3672 10.2448 22.1172 10.5625C21.8724 10.8802 21.5677 11.125 21.2031 11.2969C20.8385 11.4688 20.4271 11.5547 19.9688 11.5547Z" fill="black"/>
<path d="M11.8672 11.5547C11.138 11.5547 10.4974 11.3776 9.94531 11.0234C9.39323 10.6693 8.96615 10.1667 8.66406 9.51562C8.36719 8.86458 8.21875 8.10677 8.21875 7.24219C8.21875 6.3776 8.36719 5.6224 8.66406 4.97656C8.96615 4.32552 9.39323 3.82552 9.94531 3.47656C10.4974 3.1224 11.138 2.94531 11.8672 2.94531C12.5964 2.94531 13.237 3.1224 13.7891 3.47656C14.3411 3.82552 14.7656 4.32552 15.0625 4.97656C15.3646 5.6224 15.5156 6.3776 15.5156 7.24219C15.5156 8.10677 15.3646 8.86458 15.0625 9.51562C14.7656 10.1667 14.3411 10.6693 13.7891 11.0234C13.237 11.3776 12.5964 11.5547 11.8672 11.5547ZM11.8672 10.3359C12.3151 10.3359 12.6979 10.2161 13.0156 9.97656C13.3385 9.73177 13.5833 9.3776 13.75 8.91406C13.9219 8.45052 14.0078 7.89323 14.0078 7.24219C14.0078 6.26302 13.8203 5.50521 13.4453 4.96875C13.0703 4.43229 12.5443 4.16406 11.8672 4.16406C11.4193 4.16406 11.0339 4.28385 10.7109 4.52344C10.3932 4.76302 10.1484 5.11458 9.97656 5.57812C9.8099 6.03646 9.72656 6.59115 9.72656 7.24219C9.72656 7.89323 9.8099 8.45052 9.97656 8.91406C10.1484 9.3776 10.3932 9.73177 10.7109 9.97656C11.0339 10.2161 11.4193 10.3359 11.8672 10.3359Z" fill="black"/>
<path d="M3.39062 6.17969L3.71094 7.53906L0 0.125H1.64844L4.41406 6H3.86719L6.70312 0.125H8.26562L4.53906 7.53906L4.85938 6.17969V11.3281H3.39062V6.17969Z" fill="black"/>
<path d="M140.19 38.4648C139.789 38.4648 139.448 38.4033 139.165 38.2803C138.882 38.1572 138.661 37.9567 138.502 37.6787C138.347 37.3962 138.27 37.0293 138.27 36.5781V32.2236H137.012V31.1914H137.135C137.445 31.1914 137.693 31.1436 137.88 31.0479C138.071 30.9521 138.215 30.804 138.311 30.6035C138.406 30.403 138.463 30.1364 138.481 29.8037L138.522 29.0996H139.527V31.3008L139.377 31.1914H141.1V32.2236H139.527V36.4961C139.527 36.8197 139.607 37.0498 139.767 37.1865C139.931 37.3232 140.159 37.3916 140.45 37.3916C140.637 37.3916 140.81 37.3734 140.97 37.3369V38.3691C140.828 38.4056 140.699 38.4307 140.58 38.4443C140.462 38.458 140.332 38.4648 140.19 38.4648Z" fill="black"/>
<path d="M134.476 31.1914H135.733V38.3281H134.476V31.1914ZM135.104 30.0977C134.954 30.0977 134.813 30.0612 134.681 29.9883C134.553 29.9108 134.451 29.8083 134.373 29.6807C134.3 29.5485 134.264 29.4072 134.264 29.2568C134.264 29.1064 134.3 28.9674 134.373 28.8398C134.451 28.7077 134.553 28.6051 134.681 28.5322C134.813 28.4548 134.954 28.416 135.104 28.416C135.255 28.416 135.394 28.4548 135.521 28.5322C135.654 28.6051 135.756 28.7077 135.829 28.8398C135.907 28.9674 135.945 29.1064 135.945 29.2568C135.945 29.4072 135.907 29.5485 135.829 29.6807C135.756 29.8083 135.654 29.9108 135.521 29.9883C135.394 30.0612 135.255 30.0977 135.104 30.0977Z" fill="black"/>
<path d="M128.057 28.5254H129.314V31.1914H128.057V28.5254ZM125.965 38.5264C125.354 38.5264 124.83 38.3737 124.393 38.0684C123.955 37.7585 123.622 37.3232 123.395 36.7627C123.167 36.1976 123.053 35.5345 123.053 34.7734C123.053 34.0169 123.171 33.3538 123.408 32.7842C123.65 32.2145 123.994 31.7747 124.44 31.4648C124.887 31.1504 125.409 30.9932 126.006 30.9932C126.389 30.9932 126.737 31.0661 127.052 31.2119C127.371 31.3577 127.642 31.5788 127.865 31.875C128.093 32.1712 128.262 32.5404 128.371 32.9824L128.057 32.7021V31.1914H129.314V38.3281H128.098V36.7354L128.357 36.5371C128.212 37.1615 127.924 37.6491 127.496 38C127.068 38.3509 126.557 38.5264 125.965 38.5264ZM126.19 37.46C126.582 37.46 126.917 37.346 127.195 37.1182C127.478 36.8857 127.69 36.5667 127.831 36.1611C127.977 35.751 128.05 35.2793 128.05 34.7461C128.05 34.2174 127.977 33.7503 127.831 33.3447C127.69 32.9391 127.478 32.6247 127.195 32.4014C126.917 32.1735 126.582 32.0596 126.19 32.0596C125.799 32.0596 125.466 32.1735 125.192 32.4014C124.919 32.6247 124.714 32.9391 124.577 33.3447C124.44 33.7458 124.372 34.2129 124.372 34.7461C124.372 35.2793 124.44 35.751 124.577 36.1611C124.714 36.5667 124.919 36.8857 125.192 37.1182C125.466 37.346 125.799 37.46 126.19 37.46Z" fill="black"/>
<path d="M120.161 28.5254H121.419V38.3281H120.161V28.5254Z" fill="black"/>
<path d="M116.866 31.1914H118.124V38.3281H116.866V31.1914ZM117.495 30.0977C117.345 30.0977 117.203 30.0612 117.071 29.9883C116.944 29.9108 116.841 29.8083 116.764 29.6807C116.691 29.5485 116.654 29.4072 116.654 29.2568C116.654 29.1064 116.691 28.9674 116.764 28.8398C116.841 28.7077 116.944 28.6051 117.071 28.5322C117.203 28.4548 117.345 28.416 117.495 28.416C117.646 28.416 117.785 28.4548 117.912 28.5322C118.044 28.6051 118.147 28.7077 118.22 28.8398C118.297 28.9674 118.336 29.1064 118.336 29.2568C118.336 29.4072 118.297 29.5485 118.22 29.6807C118.147 29.8083 118.044 29.9108 117.912 29.9883C117.785 30.0612 117.646 30.0977 117.495 30.0977Z" fill="black"/>
<path d="M111.445 38.5264C110.962 38.5264 110.545 38.4329 110.194 38.2461C109.848 38.0592 109.581 37.7881 109.395 37.4326C109.212 37.0771 109.121 36.6488 109.121 36.1475V31.1914H110.379V36.0039C110.379 36.4642 110.5 36.8219 110.741 37.0771C110.983 37.3324 111.334 37.46 111.794 37.46C112.145 37.46 112.452 37.3734 112.717 37.2002C112.986 37.027 113.195 36.7718 113.346 36.4346C113.496 36.0928 113.571 35.6781 113.571 35.1904V31.1914H114.829V38.3281H113.599V36.1475L113.811 36.6738C113.706 37.0521 113.544 37.3802 113.325 37.6582C113.111 37.9362 112.844 38.1504 112.525 38.3008C112.206 38.4512 111.846 38.5264 111.445 38.5264Z" fill="black"/>
<path d="M104.589 38.5264C104.206 38.5264 103.855 38.4535 103.536 38.3076C103.222 38.1618 102.951 37.9408 102.723 37.6445C102.499 37.3483 102.333 36.9792 102.224 36.5371L102.497 36.8174V38.3281H101.28V31.1914H102.538V32.7842L102.237 32.9824C102.333 32.5677 102.495 32.2122 102.723 31.916C102.951 31.6152 103.229 31.3874 103.557 31.2324C103.889 31.0729 104.252 30.9932 104.644 30.9932C105.25 30.9932 105.769 31.1481 106.202 31.458C106.64 31.7633 106.972 32.2008 107.2 32.7705C107.428 33.3356 107.542 33.9987 107.542 34.7598C107.542 35.5163 107.424 36.1794 107.187 36.749C106.95 37.3141 106.608 37.7516 106.161 38.0615C105.715 38.3714 105.19 38.5264 104.589 38.5264ZM104.404 37.46C104.796 37.46 105.129 37.3483 105.402 37.125C105.676 36.8971 105.881 36.5827 106.018 36.1816C106.154 35.776 106.223 35.3066 106.223 34.7734C106.223 34.2402 106.154 33.7708 106.018 33.3652C105.881 32.9551 105.676 32.6361 105.402 32.4082C105.129 32.1758 104.796 32.0596 104.404 32.0596C104.012 32.0596 103.675 32.1758 103.393 32.4082C103.115 32.6361 102.903 32.9551 102.757 33.3652C102.616 33.7708 102.545 34.2402 102.545 34.7734C102.545 35.3021 102.616 35.7692 102.757 36.1748C102.903 36.5804 103.115 36.8971 103.393 37.125C103.675 37.3483 104.012 37.46 104.404 37.46ZM101.28 28.5254H102.538V31.1914H101.28V28.5254Z" fill="black"/>
<path d="M93.3369 38.5264C92.6989 38.5264 92.1383 38.3714 91.6553 38.0615C91.1722 37.7516 90.7985 37.3118 90.5342 36.7422C90.2744 36.1725 90.1445 35.5094 90.1445 34.7529C90.1445 33.9964 90.2744 33.3356 90.5342 32.7705C90.7985 32.2008 91.1722 31.7633 91.6553 31.458C92.1383 31.1481 92.6989 30.9932 93.3369 30.9932C93.9749 30.9932 94.5355 31.1481 95.0186 31.458C95.5016 31.7633 95.873 32.2008 96.1328 32.7705C96.3971 33.3356 96.5293 33.9964 96.5293 34.7529C96.5293 35.5094 96.3971 36.1725 96.1328 36.7422C95.873 37.3118 95.5016 37.7516 95.0186 38.0615C94.5355 38.3714 93.9749 38.5264 93.3369 38.5264ZM93.3369 37.46C93.7288 37.46 94.0638 37.3551 94.3418 37.1455C94.6243 36.9313 94.8385 36.6214 94.9844 36.2158C95.1348 35.8102 95.21 35.3226 95.21 34.7529C95.21 33.8962 95.0459 33.2331 94.7178 32.7637C94.3896 32.2943 93.9294 32.0596 93.3369 32.0596C92.945 32.0596 92.6077 32.1644 92.3252 32.374C92.0472 32.5837 91.833 32.8913 91.6826 33.2969C91.5368 33.6979 91.4639 34.1833 91.4639 34.7529C91.4639 35.3226 91.5368 35.8102 91.6826 36.2158C91.833 36.6214 92.0472 36.9313 92.3252 37.1455C92.6077 37.3551 92.945 37.46 93.3369 37.46Z" fill="black"/>
<path d="M88.333 38.4648C87.932 38.4648 87.5902 38.4033 87.3076 38.2803C87.0251 38.1572 86.804 37.9567 86.6445 37.6787C86.4896 37.3962 86.4121 37.0293 86.4121 36.5781V32.2236H85.1543V31.1914H85.2773C85.5872 31.1914 85.8356 31.1436 86.0225 31.0479C86.2139 30.9521 86.3574 30.804 86.4531 30.6035C86.5488 30.403 86.6058 30.1364 86.624 29.8037L86.665 29.0996H87.6699V31.3008L87.5195 31.1914H89.2422V32.2236H87.6699V36.4961C87.6699 36.8197 87.7497 37.0498 87.9092 37.1865C88.0732 37.3232 88.3011 37.3916 88.5928 37.3916C88.7796 37.3916 88.9528 37.3734 89.1123 37.3369V38.3691C88.971 38.4056 88.8411 38.4307 88.7227 38.4443C88.6042 38.458 88.4743 38.4648 88.333 38.4648Z" fill="black"/>
<path d="M78.0791 38.5264C77.4456 38.5264 76.8851 38.3896 76.3975 38.1162C75.9098 37.8382 75.527 37.4167 75.249 36.8516C74.971 36.2865 74.832 35.5846 74.832 34.7461C74.832 33.9941 74.971 33.3356 75.249 32.7705C75.5316 32.2008 75.9189 31.7633 76.4111 31.458C76.9033 31.1481 77.4593 30.9932 78.0791 30.9932C78.6898 30.9932 79.2253 31.1344 79.6855 31.417C80.1458 31.6995 80.5013 32.1143 80.752 32.6611C81.0072 33.2035 81.1348 33.8597 81.1348 34.6299C81.1348 34.7712 81.1348 34.9124 81.1348 35.0537H75.4746V34.042H80.417L79.8018 34.377C79.8018 33.8574 79.7334 33.4245 79.5967 33.0781C79.4645 32.7318 79.2686 32.4743 79.0088 32.3057C78.7536 32.137 78.4391 32.0527 78.0654 32.0527C77.6872 32.0527 77.3522 32.153 77.0605 32.3535C76.7689 32.554 76.5387 32.8503 76.3701 33.2422C76.2061 33.6341 76.124 34.1058 76.124 34.6572V34.7324C76.124 35.3385 76.2061 35.8444 76.3701 36.25C76.5342 36.6556 76.7689 36.9587 77.0742 37.1592C77.3796 37.3597 77.7441 37.46 78.168 37.46C78.61 37.46 78.9769 37.3301 79.2686 37.0703C79.5648 36.806 79.7471 36.4323 79.8154 35.9492H81.0938C81.0391 36.4596 80.8841 36.9085 80.6289 37.2959C80.3737 37.6833 80.0273 37.9863 79.5898 38.2051C79.1569 38.4193 78.6533 38.5264 78.0791 38.5264Z" fill="black"/>
<path d="M71.9404 28.5254H73.1982V38.3281H71.9404V28.5254Z" fill="black"/>
<path d="M67.3467 38.5264C66.9639 38.5264 66.613 38.4535 66.2939 38.3076C65.9795 38.1618 65.7083 37.9408 65.4805 37.6445C65.2572 37.3483 65.0908 36.9792 64.9814 36.5371L65.2549 36.8174V38.3281H64.0381V31.1914H65.2959V32.7842L64.9951 32.9824C65.0908 32.5677 65.2526 32.2122 65.4805 31.916C65.7083 31.6152 65.9863 31.3874 66.3145 31.2324C66.6471 31.0729 67.0094 30.9932 67.4014 30.9932C68.0075 30.9932 68.527 31.1481 68.96 31.458C69.3975 31.7633 69.7301 32.2008 69.958 32.7705C70.1859 33.3356 70.2998 33.9987 70.2998 34.7598C70.2998 35.5163 70.1813 36.1794 69.9443 36.749C69.7074 37.3141 69.3656 37.7516 68.9189 38.0615C68.4723 38.3714 67.9482 38.5264 67.3467 38.5264ZM67.1621 37.46C67.554 37.46 67.8867 37.3483 68.1602 37.125C68.4336 36.8971 68.6387 36.5827 68.7754 36.1816C68.9121 35.776 68.9805 35.3066 68.9805 34.7734C68.9805 34.2402 68.9121 33.7708 68.7754 33.3652C68.6387 32.9551 68.4336 32.6361 68.1602 32.4082C67.8867 32.1758 67.554 32.0596 67.1621 32.0596C66.7702 32.0596 66.4329 32.1758 66.1504 32.4082C65.8724 32.6361 65.6605 32.9551 65.5146 33.3652C65.3734 33.7708 65.3027 34.2402 65.3027 34.7734C65.3027 35.3021 65.3734 35.7692 65.5146 36.1748C65.6605 36.5804 65.8724 36.8971 66.1504 37.125C66.4329 37.3483 66.7702 37.46 67.1621 37.46ZM64.0381 28.5254H65.2959V31.1914H64.0381V28.5254Z" fill="black"/>
<path d="M58.5762 38.5264C58.1341 38.5264 57.7354 38.4421 57.3799 38.2734C57.0244 38.1003 56.7441 37.8542 56.5391 37.5352C56.3385 37.2161 56.2383 36.8447 56.2383 36.4209C56.2383 35.7692 56.4342 35.2633 56.8262 34.9033C57.2227 34.5387 57.7764 34.2995 58.4873 34.1855L59.6221 34.001C59.9137 33.9508 60.1416 33.8962 60.3057 33.8369C60.4697 33.7731 60.5905 33.6911 60.668 33.5908C60.7454 33.486 60.7842 33.347 60.7842 33.1738C60.7842 32.9824 60.7318 32.8001 60.627 32.627C60.5221 32.4538 60.3604 32.3125 60.1416 32.2031C59.9229 32.0938 59.6517 32.0391 59.3281 32.0391C58.8724 32.0391 58.501 32.1598 58.2139 32.4014C57.9313 32.6383 57.7764 32.9665 57.749 33.3857H56.4297C56.4434 32.93 56.5732 32.5221 56.8193 32.1621C57.0654 31.7975 57.4049 31.5127 57.8379 31.3076C58.2708 31.098 58.7676 30.9932 59.3281 30.9932C59.8978 30.9932 60.3877 31.0957 60.7979 31.3008C61.208 31.5013 61.5202 31.7952 61.7344 32.1826C61.9531 32.57 62.0625 33.0326 62.0625 33.5703V36.6738C62.0625 37.0065 62.0853 37.3141 62.1309 37.5967C62.181 37.8747 62.2516 38.0524 62.3428 38.1299V38.3281H61.0098C60.9551 38.1322 60.9095 37.9043 60.873 37.6445C60.8411 37.3802 60.8252 37.1227 60.8252 36.8721L61.0508 36.9404C60.9414 37.2367 60.7682 37.5055 60.5312 37.7471C60.2943 37.9886 60.0072 38.18 59.6699 38.3213C59.3327 38.458 58.9681 38.5264 58.5762 38.5264ZM58.8564 37.4736C59.2529 37.4736 59.5993 37.3848 59.8955 37.207C60.1917 37.0247 60.4173 36.7809 60.5723 36.4756C60.7318 36.1657 60.8115 35.8216 60.8115 35.4434V34.377L60.9551 34.3975C60.8229 34.5479 60.6543 34.6663 60.4492 34.7529C60.2487 34.8395 59.9775 34.917 59.6357 34.9854L58.8838 35.1357C58.4235 35.2314 58.0863 35.3773 57.8721 35.5732C57.6579 35.7646 57.5508 36.0335 57.5508 36.3799C57.5508 36.7126 57.6738 36.9792 57.9199 37.1797C58.1706 37.3757 58.4827 37.4736 58.8564 37.4736Z" fill="black"/>
<path d="M49.1768 31.1914H50.5166L52.5332 37.084H52.2939L54.2695 31.1914H55.5479L52.957 38.3281H51.7949L49.1768 31.1914Z" fill="black"/>
<path d="M45.2666 38.5264C44.6286 38.5264 44.068 38.3714 43.585 38.0615C43.1019 37.7516 42.7282 37.3118 42.4639 36.7422C42.2041 36.1725 42.0742 35.5094 42.0742 34.7529C42.0742 33.9964 42.2041 33.3356 42.4639 32.7705C42.7282 32.2008 43.1019 31.7633 43.585 31.458C44.068 31.1481 44.6286 30.9932 45.2666 30.9932C45.9046 30.9932 46.4652 31.1481 46.9482 31.458C47.4313 31.7633 47.8027 32.2008 48.0625 32.7705C48.3268 33.3356 48.459 33.9964 48.459 34.7529C48.459 35.5094 48.3268 36.1725 48.0625 36.7422C47.8027 37.3118 47.4313 37.7516 46.9482 38.0615C46.4652 38.3714 45.9046 38.5264 45.2666 38.5264ZM45.2666 37.46C45.6585 37.46 45.9935 37.3551 46.2715 37.1455C46.554 36.9313 46.7682 36.6214 46.9141 36.2158C47.0645 35.8102 47.1396 35.3226 47.1396 34.7529C47.1396 33.8962 46.9756 33.2331 46.6475 32.7637C46.3193 32.2943 45.859 32.0596 45.2666 32.0596C44.8747 32.0596 44.5374 32.1644 44.2549 32.374C43.9769 32.5837 43.7627 32.8913 43.6123 33.2969C43.4665 33.6979 43.3936 34.1833 43.3936 34.7529C43.3936 35.3226 43.4665 35.8102 43.6123 36.2158C43.7627 36.6214 43.9769 36.9313 44.2549 37.1455C44.5374 37.3551 44.8747 37.46 45.2666 37.46Z" fill="black"/>
<path d="M35.8672 28.5254H37.1523V37.5557L36.9336 37.166H41.4248V38.3281H35.8672V28.5254Z" fill="black"/>
<path d="M25.6064 28.5254H26.8643V34.6299H26.5293L29.6465 31.1914H31.2461L26.3311 36.4961L26.8643 35.4023V38.3281H25.6064V28.5254ZM27.7051 34.4932L28.3887 33.3037L31.5264 38.3281H30.0156L27.7051 34.4932Z" fill="black"/>
<path d="M21.2109 38.5264C20.5911 38.5264 20.0511 38.4261 19.5908 38.2256C19.1351 38.0205 18.7819 37.7311 18.5312 37.3574C18.2806 36.9837 18.1507 36.5417 18.1416 36.0312H19.4609C19.4792 36.487 19.6501 36.8402 19.9736 37.0908C20.2972 37.3369 20.7188 37.46 21.2383 37.46C21.6758 37.46 22.0267 37.3643 22.291 37.1729C22.5599 36.9814 22.6943 36.7217 22.6943 36.3936C22.6943 36.1292 22.5986 35.9219 22.4072 35.7715C22.2204 35.6211 21.915 35.5026 21.4912 35.416L20.3154 35.1768C19.6273 35.04 19.1214 34.8145 18.7979 34.5C18.4743 34.181 18.3125 33.7686 18.3125 33.2627C18.3125 32.8343 18.4242 32.4492 18.6475 32.1074C18.8708 31.7611 19.1921 31.4899 19.6113 31.2939C20.0306 31.0934 20.5251 30.9932 21.0947 30.9932C21.6781 30.9932 22.1771 31.0957 22.5918 31.3008C23.0065 31.5059 23.3232 31.7907 23.542 32.1553C23.7607 32.5153 23.8792 32.9255 23.8975 33.3857H22.6055C22.5872 32.9665 22.4391 32.6383 22.1611 32.4014C21.8877 32.1598 21.5231 32.0391 21.0674 32.0391C20.7803 32.0391 20.5296 32.0846 20.3154 32.1758C20.1012 32.2624 19.9349 32.3877 19.8164 32.5518C19.6979 32.7113 19.6387 32.8958 19.6387 33.1055C19.6387 33.3424 19.7207 33.5316 19.8848 33.6729C20.0488 33.8141 20.3086 33.9189 20.6641 33.9873L21.9766 34.2402C22.4141 34.3268 22.7832 34.4567 23.084 34.6299C23.3848 34.7985 23.6126 35.015 23.7676 35.2793C23.9271 35.5436 24.0068 35.8512 24.0068 36.2021C24.0068 36.6943 23.8838 37.1159 23.6377 37.4668C23.3962 37.8177 23.0635 38.082 22.6396 38.2598C22.2158 38.4375 21.7396 38.5264 21.2109 38.5264Z" fill="black"/>
<path d="M12.3926 28.5254H13.917L17.417 38.3281H16.0293L13.0215 29.5508H13.2607L10.2188 38.3281H8.8584L12.3926 28.5254ZM10.8203 34.1992H15.5986V35.3477H10.8203V34.1992Z" fill="black"/>
</svg>
