<?xml version="1.0" encoding="UTF-8"?> <svg xmlns="http://www.w3.org/2000/svg" xmlns:xlink="http://www.w3.org/1999/xlink" id="Group_501" data-name="Group 501" width="1820.227" height="251.686" viewBox="0 0 1820.227 251.686"><defs><clipPath id="clip-path"><rect id="Rectangle_6" data-name="Rectangle 6" width="1820.227" height="251.686" fill="none"></rect></clipPath></defs><g id="Group_3" data-name="Group 3" transform="translate(0 0)" clip-path="url(#clip-path)"><path id="Path_12" data-name="Path 12" d="M131.37,119.742a107.282,107.282,0,0,0-26.338-11.705q-14.315-4.225-26.34-8.781a79.658,79.658,0,0,1-20.16-10.73Q50.4,82.352,50.4,70.64a26.733,26.733,0,0,1,3.253-13.495,27.207,27.207,0,0,1,8.617-9.266,37.679,37.679,0,0,1,12.031-5.2A58.237,58.237,0,0,1,88.122,41.05a60.83,60.83,0,0,1,22.925,4.388,37.86,37.86,0,0,1,17.395,13.821l29.917-31.542a81.857,81.857,0,0,0-30.73-18.209A113.84,113.84,0,0,0,92.348,3.98,116.7,116.7,0,0,0,61.133,8.206,83.893,83.893,0,0,0,33.979,21.051,66.96,66.96,0,0,0,14.794,42.675Q7.48,55.685,7.477,73.567q0,20.485,8.131,32.679a64.023,64.023,0,0,0,20.16,19.511A110.609,110.609,0,0,0,62.108,137.3q14.3,4.229,26.338,8.943a71.9,71.9,0,0,1,20.16,11.544q8.126,6.828,8.131,19.511a26.544,26.544,0,0,1-3.577,13.821,30.581,30.581,0,0,1-9.43,9.916,44.222,44.222,0,0,1-13.007,5.854,54.262,54.262,0,0,1-14.306,1.951A55.236,55.236,0,0,1,50.565,202.5a51.582,51.582,0,0,1-19.672-17.721L0,214.693a79.5,79.5,0,0,0,34.143,24.063,120.875,120.875,0,0,0,41.3,7.153,112.28,112.28,0,0,0,32.189-4.552A79.4,79.4,0,0,0,134.458,227.7a65.907,65.907,0,0,0,18.373-22.925q6.828-13.818,6.83-32.356,0-20.485-8.131-32.841a65.209,65.209,0,0,0-20.16-19.837" transform="translate(0 5.776)" fill="#fff"></path><path id="Path_13" data-name="Path 13" d="M219.366,57.456a79.634,79.634,0,0,0-26.99-16.584,96.932,96.932,0,0,0-66.337,0,79.539,79.539,0,0,0-26.99,16.584A78.618,78.618,0,0,0,81,83.308a82.542,82.542,0,0,0-6.665,33.655A82.534,82.534,0,0,0,81,150.618a78.593,78.593,0,0,0,18.047,25.852,79.54,79.54,0,0,0,26.99,16.584,96.894,96.894,0,0,0,66.337,0,79.635,79.635,0,0,0,26.99-16.584,78.81,78.81,0,0,0,18.047-25.852,82.615,82.615,0,0,0,6.665-33.655,82.623,82.623,0,0,0-6.665-33.655,78.836,78.836,0,0,0-18.047-25.852m-17.4,77.066a44.089,44.089,0,0,1-9.107,14.958,46.121,46.121,0,0,1-67.31,0,43.967,43.967,0,0,1-9.1-14.958,51.456,51.456,0,0,1,0-35.118,44.062,44.062,0,0,1,9.1-14.958,46.125,46.125,0,0,1,67.31,0A44.184,44.184,0,0,1,201.968,99.4a51.456,51.456,0,0,1,0,35.118" transform="translate(107.891 50.829)" fill="#fff"></path><rect id="Rectangle_4" data-name="Rectangle 4" width="39.021" height="245.832" transform="translate(382.864)" fill="#fff"></rect><path id="Path_14" data-name="Path 14" d="M289.138,121.807a56.545,56.545,0,0,1-1.951,14.958,34.867,34.867,0,0,1-6.339,12.681,31.5,31.5,0,0,1-11.056,8.781q-6.67,3.254-16.422,3.251-10.414,0-16.1-4.714a28.492,28.492,0,0,1-8.455-11.708,51.726,51.726,0,0,1-3.412-14.958q-.658-7.965-.652-14.468V36.612H185.734v98.526a89.836,89.836,0,0,0,2.927,23.09,53.188,53.188,0,0,0,9.754,19.672,47.681,47.681,0,0,0,17.724,13.657q10.892,5.038,26.5,5.04,19.507,0,30.89-8.617a54.769,54.769,0,0,0,16.91-20.322h.65v25.036h37.07V36.612H289.138Z" transform="translate(269.571 53.138)" fill="#fff"></path><path id="Path_15" data-name="Path 15" d="M326.392,18.173H287.371v45.2H255.177v33.17h32.194v71.536a121.668,121.668,0,0,0,2.113,24.065,39.468,39.468,0,0,0,7.8,17.4,33.635,33.635,0,0,0,15.61,10.406q9.914,3.416,25.524,3.415a127.413,127.413,0,0,0,15.772-1.137,50.348,50.348,0,0,0,15.123-4.067V185.313a23.813,23.813,0,0,1-9.759,3.738,62.627,62.627,0,0,1-11.38,1.14q-13.009,0-17.4-6.83t-4.388-18.535V96.541h42.924V63.372H326.392Z" transform="translate(370.359 26.376)" fill="#fff"></path><path id="Path_16" data-name="Path 16" d="M340.288,5.439q-10.733,0-17.724,6.991a22.785,22.785,0,0,0,0,32.841q6.994,7,17.724,6.991A25.789,25.789,0,0,0,358.335,45.6a21.686,21.686,0,0,0,7.315-16.745A21.705,21.705,0,0,0,358.335,12.1a25.822,25.822,0,0,0-18.047-6.665" transform="translate(458.021 7.894)" fill="#fff"></path><rect id="Rectangle_5" data-name="Rectangle 5" width="39.021" height="156.084" transform="translate(779.125 89.75)" fill="#fff"></rect><path id="Path_17" data-name="Path 17" d="M490.672,57.456a79.638,79.638,0,0,0-26.99-16.584,96.933,96.933,0,0,0-66.337,0,79.542,79.542,0,0,0-26.99,16.584,78.62,78.62,0,0,0-18.047,25.852,82.539,82.539,0,0,0-6.665,33.655,82.531,82.531,0,0,0,6.665,33.655,78.6,78.6,0,0,0,18.047,25.852,79.543,79.543,0,0,0,26.99,16.584,96.894,96.894,0,0,0,66.337,0,79.639,79.639,0,0,0,26.99-16.584,78.809,78.809,0,0,0,18.047-25.852,82.612,82.612,0,0,0,6.666-33.655,82.62,82.62,0,0,0-6.666-33.655,78.834,78.834,0,0,0-18.047-25.852m-17.4,77.066a44.094,44.094,0,0,1-9.107,14.958,46.121,46.121,0,0,1-67.31,0,43.969,43.969,0,0,1-9.1-14.958,51.458,51.458,0,0,1,0-35.118,44.064,44.064,0,0,1,9.1-14.958,46.125,46.125,0,0,1,67.31,0A44.189,44.189,0,0,1,473.274,99.4a51.454,51.454,0,0,1,0,35.118" transform="translate(501.66 50.829)" fill="#fff"></path><path id="Path_18" data-name="Path 18" d="M555.179,53.879a50.141,50.141,0,0,0-17.724-13.657q-10.9-5.2-26.5-5.2-19.511,0-30.892,8.617a54.672,54.672,0,0,0-16.907,20.324h-.652V38.92h-37.07V195h39.021v-85.2a56.571,56.571,0,0,1,1.951-14.958,34.93,34.93,0,0,1,6.342-12.681A31.58,31.58,0,0,1,483.8,73.389q6.663-3.247,16.422-3.253,10.076,0,15.934,4.716a28.032,28.032,0,0,1,8.616,11.708,52.1,52.1,0,0,1,3.415,14.956q.651,7.972.65,14.473V195h39.021V96.476a89.866,89.866,0,0,0-2.927-23.087,51.766,51.766,0,0,0-9.754-19.511" transform="translate(617.468 50.827)" fill="#fff"></path><path id="Path_19" data-name="Path 19" d="M554.813,40.036V246.374h39.325V.593H515.371V40.036" transform="translate(748 0.861)" fill="#f9ba06" stroke="rgba(0,0,0,0)" stroke-width="1"></path><line id="Line_2" data-name="Line 2" y1="1.017" transform="translate(1704.071 156.489)" fill="none" stroke="#5bc462" stroke-linecap="round" stroke-linejoin="round" stroke-width="0"></line><path id="Path_22" data-name="Path 22" d="M742.4,48.413v.324h.318Z" transform="translate(1077.507 70.265)" fill="#f9ba06"></path><path id="Path_34" data-name="Path 34" d="M675.428.657A122.9,122.9,0,0,0,548.577,127.5c2.057,64.344,54.462,116.749,118.8,118.8A122.9,122.9,0,0,0,794.23,119.458C792.178,55.115,739.77,2.709,675.428.657M668.683,206.6c-43.542-1.39-79-36.852-80.393-80.393A83.16,83.16,0,1,1,668.683,206.6" transform="translate(835.805 0.468)" fill="#5bc462"></path><path id="Path_35" data-name="Path 35" d="M743.781,72.868v.142H714.654l.137-.142V39.559H811L811.334.29H676.321V112.026l.137-.142h67.323a47.956,47.956,0,1,1-47.957,47.956H656.808a86.973,86.973,0,1,0,86.973-86.973" transform="translate(992.982 0.029)" fill="#61bac9"></path></g></svg> 
